<?xml version="1.0" encoding="UTF-8" standalone="no"?>
<svg
   xmlns:dc="http://purl.org/dc/elements/1.1/"
   xmlns:cc="http://creativecommons.org/ns#"
   xmlns:rdf="http://www.w3.org/1999/02/22-rdf-syntax-ns#"
   xmlns:svg="http://www.w3.org/2000/svg"
   xmlns="http://www.w3.org/2000/svg"
   viewBox="0 0 2437.7954 1530.7087"
   id="svg2"
   height="1530.7087"
   width="2437.7954"
   version="1.1">
  <metadata
     id="metadata20">
    <rdf:RDF>
      <cc:Work
         rdf:about="">
        <dc:format>image/svg+xml</dc:format>
        <dc:type
           rdf:resource="http://purl.org/dc/dcmitype/StillImage" />
      </cc:Work>
    </rdf:RDF>
  </metadata>
  <defs
     id="defs18" />
  <path
     id="path4"
     style="fill:#1b1918;fill-rule:evenodd;stroke:#1b1918;stroke-width:0.56690001;stroke-linecap:butt;stroke-linejoin:miter;stroke-dasharray:none"
     d="m 432.9108,368.8647 789.9966,0 0,374.2957 -789.9966,0 0,-374.2957 z" />
  <path
     id="path6"
     style="fill:#fbbb00;fill-rule:evenodd"
     d="m 596.0778,652.1061 0,-4.7227 7.0927,0 0,-2.3698 -7.0927,0 0,-2.3869 7.6851,0 0,-2.3698 -10.0549,0 0,11.8492 2.3698,0 z m 45.5689,0 0,-11.8492 -2.3698,0 0,11.8492 2.3698,0 z m 45.4846,0 1.1678,-1.168 0,-5.6199 -5.332,0 0,2.3698 2.9793,0 0,2.0483 -5.9078,0 0,-7.1096 5.9078,0 0,1.1849 2.3527,0 0,-2.3527 -1.1678,-1.202 -8.2945,0 -1.168,1.202 0,9.4792 1.168,1.168 8.2945,0 z m 39.5596,0 0,-4.7227 5.9078,0 0,4.7227 2.3528,0 0,-11.8492 -2.3528,0 0,4.7567 -5.9078,0 0,-4.7567 -2.3698,0 0,11.8492 2.3698,0 z m 50.2919,0 0,-9.4794 4.1133,0 0,-2.3698 -10.6304,0 0,2.3698 4.1473,0 0,9.4794 2.3698,0 z m 75.6999,0 1.1679,-1.168 0,-2.3698 -2.3528,0 0,1.168 -5.9078,0 0,-7.1096 5.9078,0 0,1.1849 2.3528,0 0,-2.3527 -1.1679,-1.202 -8.2945,0 -1.168,1.202 0,9.4792 1.168,1.168 8.2945,0 z m 37.0205,-11.8492 0,11.8492 10.0549,0 0,-2.3698 -7.6851,0 0,-9.4794 -2.3698,0 z m 45.5689,0 0,10.6812 1.168,1.168 8.2945,0 1.1679,-1.168 0,-10.6812 -2.3528,0 0,9.4794 -5.9078,0 0,-9.4794 -2.3698,0 z m 49.0222,9.4794 0,-2.3529 5.9078,0 0,2.3529 -5.9078,0 z m 0,-4.7227 0,-2.3869 5.9078,0 0,2.3869 -5.9078,0 z m 7.0927,7.0925 1.1678,-1.168 0,-3.5547 -1.1678,-1.1849 1.1678,-1.1849 0,-3.5547 -1.1678,-1.202 -9.4625,0 0,11.8492 9.4625,0 z" />
  <path
     id="path8"
     style="fill:#ffffff;fill-rule:evenodd"
     d="m 506.226,612.8247 c -0.9752,0 -1.7876,-0.2765 -2.4381,-0.8289 -0.65,-0.5528 -0.9753,-1.2841 -0.9753,-2.1945 l 0,-78.6031 c 0,-0.8452 0.3253,-1.544 0.9753,-2.0964 0.6505,-0.5529 1.4629,-0.8293 2.4381,-0.8293 l 36.0836,0 c 1.04,0 1.8853,0.2764 2.5353,0.8293 0.6505,0.5524 0.9753,1.2512 0.9753,2.0964 l 0,8.5821 c 0,0.8453 -0.3412,1.5929 -1.0241,2.2429 -0.6824,0.65 -1.5112,0.9753 -2.4865,0.9753 l -24.7709,0 0,23.6981 18.9194,0 c 0.9752,0 1.7393,0.2759 2.2917,0.8288 0.5529,0.5524 0.8288,1.2841 0.8288,2.1941 l 0,8.5821 c 0,0.78 -0.2759,1.4464 -0.8288,1.9993 -0.5524,0.5524 -1.3165,0.8288 -2.2917,0.8288 l -18.9194,0 0,28.6716 c 0,0.7804 -0.3248,1.4793 -0.9753,2.0969 -0.65,0.6176 -1.43,0.9265 -2.3405,0.9265 l -7.9969,0 z m 136.2878,-2.6334 c 0.13,0.9105 -0.0976,1.6581 -0.6829,2.2433 -0.5847,0.5848 -1.3976,0.8777 -2.4381,0.8777 l -10.3374,0 c -1.8852,0 -2.9253,-0.8777 -3.1205,-2.6334 l -3.1205,-13.9455 -17.359,0 -2.6334,13.9455 c -0.1947,0.9105 -0.52,1.5769 -0.9752,1.9993 -0.4552,0.4229 -1.17,0.6341 -2.1453,0.6341 l -10.3374,0 c -1.1052,0 -1.9669,-0.3088 -2.5845,-0.9265 -0.6177,-0.6176 -0.8289,-1.3493 -0.6336,-2.1945 l 16.0908,-78.9931 c 0.1952,-0.91 0.7153,-1.674 1.5605,-2.2917 0.8453,-0.6176 1.7881,-0.9264 2.8282,-0.9264 l 15.4084,0 c 1.1052,0 2.0805,0.3088 2.9257,0.9264 0.8453,0.6177 1.3653,1.3817 1.5605,2.2917 l 15.9937,78.9931 z m -35.1083,-26.8187 13.7507,0.0977 -6.9239,-40.1794 -6.8268,40.0817 z m 85.9662,29.8421 c -0.7804,0 -1.4952,-0.3253 -2.1457,-0.9753 -0.65,-0.65 -0.9753,-1.4305 -0.9753,-2.3405 l 0,-68.1681 -11.8002,0 c -1.04,0 -1.8853,-0.26 -2.5353,-0.7805 -0.6505,-0.52 -0.9753,-1.2352 -0.9753,-2.1452 l 0,-7.8016 c 0,-0.9105 0.3248,-1.6746 0.9753,-2.2922 0.65,-0.6176 1.4953,-0.9265 2.5353,-0.9265 l 38.3265,0 c 1.04,0 1.9017,0.26 2.5841,0.7805 0.6829,0.52 1.0241,1.3329 1.0241,2.4382 l 0,7.8016 c 0,0.91 -0.3412,1.6252 -1.0241,2.1452 -0.6824,0.5205 -1.5441,0.7805 -2.5841,0.7805 l -11.215,0 0,68.1681 c 0,0.91 -0.3088,1.6905 -0.9265,2.3405 -0.6176,0.65 -1.3493,0.9753 -2.1945,0.9753 l -9.0693,0 z m 71.4351,0 c -0.7805,0 -1.4953,-0.3253 -2.1458,-0.9753 -0.65,-0.65 -0.9752,-1.4305 -0.9752,-2.3405 l 0,-78.7007 c 0,-0.8452 0.3252,-1.5929 0.9752,-2.2429 0.6505,-0.65 1.3653,-0.9752 2.1458,-0.9752 l 9.0697,0 c 0.91,0 1.6741,0.3088 2.2917,0.9264 0.6176,0.6177 0.9264,1.3817 0.9264,2.2917 l 0,34.8155 23.1129,-0.0976 0,-34.7179 c 0,-0.8452 0.3412,-1.5929 1.0236,-2.2429 0.6829,-0.65 1.4793,-0.9752 2.3893,-0.9752 l 8.7773,0 c 0.9101,0 1.7065,0.3252 2.3894,0.9752 0.6824,0.65 1.024,1.3977 1.024,2.2429 l 0,78.7007 c 0,0.91 -0.3416,1.6905 -1.024,2.3405 -0.6829,0.65 -1.4793,0.9753 -2.3894,0.9753 l -8.7773,0 c -0.91,0 -1.7064,-0.3253 -2.3893,-0.9753 -0.6824,-0.65 -1.0236,-1.4305 -1.0236,-2.3405 l 0,-29.0616 -23.1129,0.0976 0,28.964 c 0,0.91 -0.3088,1.6905 -0.9264,2.3405 -0.6176,0.65 -1.3817,0.9753 -2.2917,0.9753 l -9.0697,0 z m 100.3989,-0.2924 c -0.9752,0 -1.7717,-0.3088 -2.3893,-0.9265 -0.6176,-0.6176 -0.9265,-1.3817 -0.9265,-2.2922 l 0,-78.7978 c 0,-0.9104 0.3089,-1.6581 0.9265,-2.2433 0.6176,-0.5848 1.4141,-0.8777 2.3893,-0.8777 l 35.8884,0 c 0.9105,0 1.6905,0.2929 2.3405,0.8777 0.6505,0.5852 0.9753,1.3329 0.9753,2.2433 l 0,8.3869 c 0,0.91 -0.3248,1.6905 -0.9753,2.3405 -0.65,0.65 -1.43,0.9753 -2.3405,0.9753 l -24.5758,0 0,23.6004 18.6271,0 c 0.91,0 1.6417,0.2924 2.1941,0.8777 0.5528,0.5852 0.8288,1.3329 0.8288,2.2429 l 0,8.4844 c 0,0.9105 -0.276,1.6417 -0.8288,2.1941 -0.5524,0.5529 -1.2841,0.8293 -2.1941,0.8293 l -18.6271,0 0,17.2613 24.5758,0 c 0.9105,0 1.6905,0.3089 2.3405,0.9265 0.6505,0.6176 0.9753,1.3493 0.9753,2.1941 l 0,8.4844 c 0,0.9105 -0.3248,1.6746 -0.9753,2.2922 -0.65,0.6177 -1.43,0.9265 -2.3405,0.9265 l -35.8884,0 z m 128.5834,-3.121 c 0.13,0.39 0.1952,0.6828 0.1952,0.8776 0,0.7153 -0.2441,1.3169 -0.7317,1.8045 -0.4876,0.4877 -1.0564,0.7313 -1.7065,0.7313 l -10.2397,0 c -1.1052,0 -2.0645,-0.3412 -2.8769,-1.0241 -0.8129,-0.6824 -1.3494,-1.5441 -1.6094,-2.5841 l -5.5586,-19.1147 -8.1921,-0.0976 0,19.6999 c 0,0.91 -0.3572,1.6577 -1.0724,2.2429 -0.7153,0.5853 -1.5605,0.8777 -2.5358,0.8777 l -9.3621,0 c -1.1052,0 -1.9669,-0.2765 -2.5846,-0.8289 -0.6176,-0.5528 -0.9264,-1.3164 -0.9264,-2.2917 l 0,-78.7982 c 0,-0.9753 0.3088,-1.7882 0.9264,-2.4382 0.6177,-0.65 1.4794,-0.9752 2.5846,-0.9752 l 23.7953,0 c 6.7615,0 11.6378,1.7228 14.6284,5.1686 2.991,3.4458 4.4538,8.5821 4.3886,15.4084 l -0.0976,23.0157 c 0,3.1206 -0.6176,5.9811 -1.8529,8.5817 -1.2353,2.6009 -2.9582,4.7462 -5.1687,6.4367 l 7.9969,23.3077 z m -22.2353,-34.0355 c 1.8858,0 3.4946,-0.6824 4.8275,-2.0477 1.3329,-1.3652 1.9993,-2.9905 1.9993,-4.8762 l 0,-21.3572 c 0,-1.9505 -0.65,-3.5598 -1.9505,-4.8274 -1.3,-1.2681 -2.9257,-1.9017 -4.8763,-1.9017 l -9.1668,-0.0976 0,35.1078 9.1668,0 z m 63.0487,17.0665 c 0.065,-1.69 0.4388,-2.7793 1.1212,-3.2669 0.6829,-0.4877 1.6417,-0.6989 2.877,-0.6336 l 7.1192,0.0971 c 1.4305,0 2.5845,0.4065 3.4622,1.2193 0.8776,0.8124 1.3164,1.9665 1.3164,3.4618 0.065,2.2757 0.9589,4.1122 2.6818,5.5103 1.7229,1.3977 3.7222,2.0965 5.9979,2.0965 2.5353,0 4.697,-0.8452 6.4852,-2.5353 1.7876,-1.6905 2.6817,-4.1286 2.6817,-7.3144 0,-0.4553 -0.065,-1.2677 -0.1948,-2.4382 -0.4552,-3.1205 -1.6257,-5.4122 -3.511,-6.8751 -1.8853,-1.4629 -4.7787,-2.617 -8.6797,-3.4622 -6.1763,-1.3653 -10.8086,-3.6246 -13.8967,-6.7775 -3.0882,-3.1534 -5.0711,-6.3716 -5.9487,-9.655 -0.8781,-3.2834 -1.3817,-6.8428 -1.5117,-10.6786 -0.13,-5.1362 0.8124,-9.5897 2.8281,-13.3607 2.0153,-3.7706 4.9247,-6.6475 8.7281,-8.6304 3.8034,-1.9834 8.2732,-2.9746 13.4095,-2.9746 4.2258,0 8.0616,0.9588 11.5074,2.877 3.4458,1.9176 6.1768,4.567 8.1921,7.948 2.0153,3.3805 3.0234,7.2168 3.0234,11.5074 l 0,0.0976 c -0.065,1.0405 -0.4393,1.9017 -1.1217,2.5846 -0.6829,0.6824 -1.4793,0.9912 -2.3893,0.9264 l -8.4845,0 c -0.91,-0.0652 -1.6577,-0.4064 -2.2429,-1.0241 -0.5853,-0.6176 -0.8453,-1.3816 -0.7805,-2.2917 l 0,-0.8776 c 0,-1.9505 -0.52,-3.6734 -1.56,-5.1687 -1.0405,-1.4957 -2.5682,-2.4381 -4.5839,-2.8281 -1.04,-0.13 -1.8201,-0.1953 -2.3405,-0.1953 -2.9906,0 -5.3635,0.9917 -7.1188,2.9746 -1.7557,1.9829 -2.6334,4.6646 -2.6334,8.0456 0,1.3001 0.065,2.3077 0.1953,3.023 0.7152,2.991 1.9341,5.2175 3.657,6.6803 1.7229,1.4629 4.5998,2.7146 8.6308,3.7546 4.8111,1.1705 8.7281,2.633 11.7515,4.3887 3.0229,1.7553 5.3799,4.1282 7.0704,7.1192 1.69,2.9905 2.6981,6.8916 3.0229,11.7026 0.065,0.65 0.098,1.5605 0.098,2.7305 0,7.7369 -2.1781,13.702 -6.5339,17.8954 -4.3563,4.1934 -10.2726,6.2904 -17.749,6.2904 -4.421,0 -8.5173,-0.8293 -12.2878,-2.487 -3.7711,-1.6581 -6.7616,-4.1286 -8.9721,-7.4116 -2.2105,-3.2834 -3.3158,-7.2656 -3.3158,-11.9466 l 0,-0.0977 z" />
  <path
     id="path10"
     style="fill:#ffffff;fill-rule:evenodd"
     d="m 561.0048,640.7253 3.426,5.9251 3.4269,5.9251 0.6461,1.117 -1.2889,0 -6.8529,0 -6.8528,0 -1.2888,0 0.646,-1.117 3.4268,-5.9251 3.426,-5.9251 0.6428,-1.1118 0.6428,1.1118 z m 2.1405,6.6698 -2.7833,-4.8135 -2.7832,4.8135 -2.7809,4.8081 5.5641,0 5.5641,0 -2.7808,-4.8081 z" />
  <path
     id="path12"
     style="fill:#ffffff;fill-rule:evenodd"
     d="m 589.1855,625.3012 407.9028,0 0,1.9007 -407.9028,0 0,-1.9007 z" />
  <path
     id="path14"
     style="fill:#ffffff;fill-rule:evenodd"
     d="m 1026.5547,640.7253 3.4261,5.9251 3.4268,5.9251 0.6461,1.117 -1.2889,0 -6.8529,0 -6.8528,0 -1.2888,0 0.646,-1.117 3.4268,-5.9251 3.4261,-5.9251 0.6427,-1.1118 0.6428,1.1118 z m 2.1405,6.6698 -2.7833,-4.8135 -2.7832,4.8135 -2.7808,4.8081 5.564,0 5.5641,0 -2.7808,-4.8081 z" />
</svg>
